<svg width="19" height="18" viewBox="0 0 19 18" fill="none" xmlns="http://www.w3.org/2000/svg">
<path d="M17.6554 10.8C17.4167 10.8 17.1878 10.8948 17.019 11.0636C16.8502 11.2324 16.7554 11.4613 16.7554 11.7V15.3C16.7554 15.5387 16.6606 15.7676 16.4918 15.9364C16.323 16.1052 16.0941 16.2 15.8554 16.2H3.25542C3.01673 16.2 2.78781 16.1052 2.61902 15.9364C2.45024 15.7676 2.35542 15.5387 2.35542 15.3V11.7C2.35542 11.4613 2.2606 11.2324 2.09182 11.0636C1.92303 10.8948 1.69411 10.8 1.45542 10.8C1.21673 10.8 0.987806 10.8948 0.819024 11.0636C0.650241 11.2324 0.55542 11.4613 0.55542 11.7V15.3C0.55542 16.0161 0.839883 16.7028 1.34623 17.2092C1.85258 17.7155 2.53934 18 3.25542 18H15.8554C16.5715 18 17.2583 17.7155 17.7646 17.2092C18.271 16.7028 18.5554 16.0161 18.5554 15.3V11.7C18.5554 11.4613 18.4606 11.2324 18.2918 11.0636C18.123 10.8948 17.8941 10.8 17.6554 10.8ZM8.91642 12.339C9.00201 12.4209 9.10294 12.4852 9.21342 12.528C9.32115 12.5756 9.43764 12.6002 9.55542 12.6002C9.6732 12.6002 9.78969 12.5756 9.89742 12.528C10.0079 12.4852 10.1088 12.4209 10.1944 12.339L13.7944 8.739C13.9639 8.56953 14.0591 8.33967 14.0591 8.1C14.0591 7.86033 13.9639 7.63047 13.7944 7.461C13.6249 7.29153 13.3951 7.19632 13.1554 7.19632C12.9157 7.19632 12.6859 7.29153 12.5164 7.461L10.4554 9.531V0.9C10.4554 0.661305 10.3606 0.432387 10.1918 0.263604C10.023 0.0948211 9.79411 0 9.55542 0C9.31672 0 9.08781 0.0948211 8.91902 0.263604C8.75024 0.432387 8.65542 0.661305 8.65542 0.9V9.531L6.59442 7.461C6.51051 7.37709 6.41088 7.31052 6.30124 7.26511C6.1916 7.21969 6.07409 7.19632 5.95542 7.19632C5.83675 7.19632 5.71924 7.21969 5.6096 7.26511C5.49996 7.31052 5.40033 7.37709 5.31642 7.461C5.23251 7.54491 5.16594 7.64454 5.12053 7.75418C5.07511 7.86381 5.05174 7.98133 5.05174 8.1C5.05174 8.21867 5.07511 8.33618 5.12053 8.44582C5.16594 8.55546 5.23251 8.65509 5.31642 8.739L8.91642 12.339Z" fill="black"/>
</svg>
