<svg width="19" height="18" viewBox="0 0 19 18" fill="none" xmlns="http://www.w3.org/2000/svg">
<path d="M2.3557 18C2.02629 18 1.69868 17.91 1.40888 17.7318C1.14819 17.57 0.93304 17.3445 0.783751 17.0765C0.634461 16.8084 0.555961 16.5068 0.555664 16.2V1.79971C0.555664 1.1751 0.87967 0.595488 1.40888 0.267882C1.67015 0.107249 1.96797 0.0157015 2.27436 0.00184651C2.58074 -0.0120085 2.88561 0.0522845 3.16031 0.188681L17.5606 7.38881C17.8596 7.53857 18.111 7.76859 18.2867 8.05311C18.4624 8.33763 18.5554 8.66544 18.5554 8.99984C18.5554 9.33424 18.4624 9.66205 18.2867 9.94657C18.111 10.2311 17.8596 10.4611 17.5606 10.6109L3.16031 17.811C2.90831 17.937 2.6293 18 2.3557 18Z" fill="black"/>
</svg>
